# xmcd
#
# Track frame offsets:
#	150
#	15510
#	29114
#	47588
#	87284
#	104267
#	124183
#	138953
#	160464
#	176525
#	213362
#	231887
#	253048
#
# Disc length: 3572 seconds
#
# Revision: 1
# Processed by: cddbd v1.5.2PL0 Copyright (c) Steve Scherf et al.
# Submitted via: audiograbber 1.83.01
#
DISCID=ae0df20d
DTITLE=Hale Bopp - Hale Bopp 2000
DYEAR=2000
DGENRE=Blues
TTITLE0=Footstompin Music
TTITLE1=The Thrill Is Gone
TTITLE2=Help The Poor
TTITLE3=Stormy Monday
TTITLE4=Messin With The Kid
TTITLE5=Fly Like An Eagle
TTITLE6=Hard Times
TTITLE7=On Broadway
TTITLE8=Emily
TTITLE9=Old Love
TTITLE10=Living In A Glasshouse
TTITLE11=True Coloours
TTITLE12=Let The Good Times Roll
EXTD=Diese CD wurde aussschieﬂlich zu Demo-Zwecken produziert!\nhttp://www.hale
EXTD=bopp-music.de
EXTT0=
EXTT1=
EXTT2=
EXTT3=
EXTT4=
EXTT5=
EXTT6=
EXTT7=
EXTT8=
EXTT9=
EXTT10=
EXTT11=
EXTT12=
PLAYORDER=
